<mxfile host="app.diagrams.net" agent="Mozilla/5.0 (Windows NT 10.0; Win64; x64) AppleWebKit/537.36 (KHTML, like Gecko) Chrome/131.0.0.0 Safari/537.36" version="26.0.3">
  <diagram name="Page-1" id="jcGXgFIR4Qz2inhN8fVe">
    <mxGraphModel dx="1434" dy="772" grid="1" gridSize="10" guides="1" tooltips="1" connect="1" arrows="1" fold="1" page="1" pageScale="1" pageWidth="850" pageHeight="1100" math="0" shadow="0">
      <root>
        <mxCell id="0" />
        <mxCell id="1" parent="0" />
        <mxCell id="g3kFlUszYr9XNTkIVNF6-1" value="&lt;b&gt;&lt;font style=&quot;font-size: 14px;&quot;&gt;Statefulset&lt;/font&gt;&lt;/b&gt;" style="rounded=1;arcSize=10;whiteSpace=wrap;html=1;align=center;fillColor=#dae8fc;strokeColor=#6c8ebf;" parent="1" vertex="1">
          <mxGeometry x="220" y="160" width="100" height="40" as="geometry" />
        </mxCell>
        <mxCell id="g3kFlUszYr9XNTkIVNF6-2" value="&lt;b&gt;&lt;font style=&quot;font-size: 14px;&quot;&gt;Pod&lt;/font&gt;&lt;/b&gt;" style="rounded=1;arcSize=10;whiteSpace=wrap;html=1;align=center;fillColor=#d5e8d4;strokeColor=#82b366;" parent="1" vertex="1">
          <mxGeometry x="540" y="160" width="100" height="40" as="geometry" />
        </mxCell>
        <mxCell id="g3kFlUszYr9XNTkIVNF6-3" value="&lt;b&gt;&lt;font style=&quot;font-size: 14px;&quot;&gt;Service/&lt;/font&gt;&lt;/b&gt;&lt;div&gt;&lt;b&gt;&lt;font style=&quot;font-size: 14px;&quot;&gt;ClusterIP&lt;/font&gt;&lt;/b&gt;&lt;/div&gt;" style="rounded=1;arcSize=10;whiteSpace=wrap;html=1;align=center;fillColor=#ffe6cc;strokeColor=#d79b00;" parent="1" vertex="1">
          <mxGeometry x="380" y="160" width="100" height="40" as="geometry" />
        </mxCell>
        <mxCell id="g3kFlUszYr9XNTkIVNF6-4" value="" style="rounded=1;whiteSpace=wrap;html=1;" parent="1" vertex="1">
          <mxGeometry x="220" y="240" width="490" height="320" as="geometry" />
        </mxCell>
        <mxCell id="g3kFlUszYr9XNTkIVNF6-5" value="&lt;b&gt;&lt;font style=&quot;font-size: 14px;&quot;&gt;hive-metastore&lt;/font&gt;&lt;/b&gt;" style="rounded=1;arcSize=10;whiteSpace=wrap;html=1;align=center;fillColor=#dae8fc;strokeColor=#6c8ebf;" parent="1" vertex="1">
          <mxGeometry x="240" y="260" width="100" height="40" as="geometry" />
        </mxCell>
        <mxCell id="g3kFlUszYr9XNTkIVNF6-7" value="&lt;b&gt;&lt;font style=&quot;font-size: 14px;&quot;&gt;hive-metastore-0&lt;/font&gt;&lt;/b&gt;" style="rounded=1;arcSize=10;whiteSpace=wrap;html=1;align=center;fillColor=#d5e8d4;strokeColor=#82b366;" parent="1" vertex="1">
          <mxGeometry x="240" y="360" width="100" height="40" as="geometry" />
        </mxCell>
        <mxCell id="g3kFlUszYr9XNTkIVNF6-13" value="10.244.2.26" style="text;html=1;align=center;verticalAlign=middle;whiteSpace=wrap;rounded=0;" parent="1" vertex="1">
          <mxGeometry x="240" y="400" width="100" height="20" as="geometry" />
        </mxCell>
        <mxCell id="g3kFlUszYr9XNTkIVNF6-19" value="" style="endArrow=classic;html=1;rounded=0;entryX=0.5;entryY=0;entryDx=0;entryDy=0;exitX=0.5;exitY=1;exitDx=0;exitDy=0;" parent="1" source="g3kFlUszYr9XNTkIVNF6-5" target="g3kFlUszYr9XNTkIVNF6-7" edge="1">
          <mxGeometry width="50" height="50" relative="1" as="geometry">
            <mxPoint x="400" y="320" as="sourcePoint" />
            <mxPoint x="450" y="270" as="targetPoint" />
          </mxGeometry>
        </mxCell>
        <mxCell id="g3kFlUszYr9XNTkIVNF6-22" value="&lt;b&gt;&lt;font style=&quot;font-size: 14px;&quot;&gt;hive-metastore&lt;/font&gt;&lt;/b&gt;" style="rounded=1;arcSize=10;whiteSpace=wrap;html=1;align=center;fillColor=#ffe6cc;strokeColor=#d79b00;" parent="1" vertex="1">
          <mxGeometry x="240" y="480" width="100" height="40" as="geometry" />
        </mxCell>
        <mxCell id="g3kFlUszYr9XNTkIVNF6-25" value="" style="endArrow=classic;html=1;rounded=0;entryX=0.5;entryY=0;entryDx=0;entryDy=0;exitX=0.5;exitY=1;exitDx=0;exitDy=0;" parent="1" source="g3kFlUszYr9XNTkIVNF6-13" target="g3kFlUszYr9XNTkIVNF6-22" edge="1">
          <mxGeometry width="50" height="50" relative="1" as="geometry">
            <mxPoint x="300" y="310" as="sourcePoint" />
            <mxPoint x="300" y="370" as="targetPoint" />
          </mxGeometry>
        </mxCell>
        <mxCell id="g3kFlUszYr9XNTkIVNF6-26" value="10.101.11.243:&lt;div&gt;9083/TCP&lt;/div&gt;" style="text;html=1;align=center;verticalAlign=middle;whiteSpace=wrap;rounded=0;" parent="1" vertex="1">
          <mxGeometry x="240" y="520" width="100" height="30" as="geometry" />
        </mxCell>
        <mxCell id="g3kFlUszYr9XNTkIVNF6-37" value="&lt;b&gt;&lt;font style=&quot;font-size: 14px;&quot;&gt;hive-meta-store-pgsql&lt;/font&gt;&lt;/b&gt;" style="rounded=1;arcSize=10;whiteSpace=wrap;html=1;align=center;fillColor=#dae8fc;strokeColor=#6c8ebf;" parent="1" vertex="1">
          <mxGeometry x="450" y="260" width="100" height="40" as="geometry" />
        </mxCell>
        <mxCell id="g3kFlUszYr9XNTkIVNF6-38" value="&lt;b&gt;&lt;font style=&quot;font-size: 14px;&quot;&gt;hive-meta-store-pgsql-0&lt;/font&gt;&lt;/b&gt;" style="rounded=1;arcSize=10;whiteSpace=wrap;html=1;align=center;fillColor=#d5e8d4;strokeColor=#82b366;" parent="1" vertex="1">
          <mxGeometry x="450" y="360" width="100" height="40" as="geometry" />
        </mxCell>
        <mxCell id="g3kFlUszYr9XNTkIVNF6-39" value="10.244.1.27" style="text;html=1;align=center;verticalAlign=middle;whiteSpace=wrap;rounded=0;" parent="1" vertex="1">
          <mxGeometry x="450" y="400" width="100" height="20" as="geometry" />
        </mxCell>
        <mxCell id="g3kFlUszYr9XNTkIVNF6-40" value="" style="endArrow=classic;html=1;rounded=0;entryX=0.5;entryY=0;entryDx=0;entryDy=0;exitX=0.5;exitY=1;exitDx=0;exitDy=0;" parent="1" source="g3kFlUszYr9XNTkIVNF6-37" target="g3kFlUszYr9XNTkIVNF6-38" edge="1">
          <mxGeometry width="50" height="50" relative="1" as="geometry">
            <mxPoint x="600" y="320" as="sourcePoint" />
            <mxPoint x="650" y="270" as="targetPoint" />
          </mxGeometry>
        </mxCell>
        <mxCell id="g3kFlUszYr9XNTkIVNF6-41" value="&lt;b&gt;&lt;font style=&quot;font-size: 14px;&quot;&gt;hive-meta-store-pgsql&lt;/font&gt;&lt;/b&gt;" style="rounded=1;arcSize=10;whiteSpace=wrap;html=1;align=center;fillColor=#ffe6cc;strokeColor=#d79b00;" parent="1" vertex="1">
          <mxGeometry x="380" y="480" width="100" height="40" as="geometry" />
        </mxCell>
        <mxCell id="g3kFlUszYr9XNTkIVNF6-43" value="10.103.106.211:&lt;div&gt;5432/TCP&lt;/div&gt;" style="text;html=1;align=center;verticalAlign=middle;whiteSpace=wrap;rounded=0;" parent="1" vertex="1">
          <mxGeometry x="380" y="520" width="100" height="30" as="geometry" />
        </mxCell>
        <mxCell id="g3kFlUszYr9XNTkIVNF6-44" value="&lt;b&gt;&lt;font style=&quot;font-size: 14px;&quot;&gt;hive-meta-store-pgsql-hl&lt;/font&gt;&lt;/b&gt;" style="rounded=1;arcSize=10;whiteSpace=wrap;html=1;align=center;fillColor=#ffe6cc;strokeColor=#d79b00;" parent="1" vertex="1">
          <mxGeometry x="520" y="480" width="100" height="40" as="geometry" />
        </mxCell>
        <mxCell id="g3kFlUszYr9XNTkIVNF6-45" value="" style="edgeStyle=elbowEdgeStyle;elbow=vertical;endArrow=classic;html=1;curved=0;rounded=0;endSize=8;startSize=8;exitX=0.5;exitY=1;exitDx=0;exitDy=0;entryX=0.5;entryY=0;entryDx=0;entryDy=0;" parent="1" source="g3kFlUszYr9XNTkIVNF6-39" target="g3kFlUszYr9XNTkIVNF6-41" edge="1">
          <mxGeometry width="50" height="50" relative="1" as="geometry">
            <mxPoint x="610" y="420" as="sourcePoint" />
            <mxPoint x="540" y="480" as="targetPoint" />
          </mxGeometry>
        </mxCell>
        <mxCell id="g3kFlUszYr9XNTkIVNF6-46" value="" style="edgeStyle=elbowEdgeStyle;elbow=vertical;endArrow=classic;html=1;curved=0;rounded=0;endSize=8;startSize=8;exitX=0.5;exitY=1;exitDx=0;exitDy=0;entryX=0.5;entryY=0;entryDx=0;entryDy=0;" parent="1" source="g3kFlUszYr9XNTkIVNF6-39" target="g3kFlUszYr9XNTkIVNF6-44" edge="1">
          <mxGeometry width="50" height="50" relative="1" as="geometry">
            <mxPoint x="500" y="430" as="sourcePoint" />
            <mxPoint x="440" y="490" as="targetPoint" />
          </mxGeometry>
        </mxCell>
        <mxCell id="g3kFlUszYr9XNTkIVNF6-47" value="5432/TCP" style="text;html=1;align=center;verticalAlign=middle;whiteSpace=wrap;rounded=0;" parent="1" vertex="1">
          <mxGeometry x="520" y="520" width="100" height="20" as="geometry" />
        </mxCell>
        <mxCell id="g3kFlUszYr9XNTkIVNF6-48" value="&lt;span style=&quot;font-size: 14px;&quot;&gt;&lt;b&gt;Persistent&lt;/b&gt;&lt;/span&gt;&lt;div&gt;&lt;span style=&quot;font-size: 14px;&quot;&gt;&lt;b&gt;VolumeClaim&lt;/b&gt;&lt;/span&gt;&lt;/div&gt;" style="rounded=1;arcSize=10;whiteSpace=wrap;html=1;align=center;fillColor=#fff2cc;strokeColor=#d6b656;" parent="1" vertex="1">
          <mxGeometry x="700" y="160" width="100" height="40" as="geometry" />
        </mxCell>
        <mxCell id="g3kFlUszYr9XNTkIVNF6-49" value="&lt;span style=&quot;font-size: 14px;&quot;&gt;&lt;b&gt;hive-meta-store-pgsql-0&lt;/b&gt;&lt;/span&gt;" style="rounded=1;arcSize=10;whiteSpace=wrap;html=1;align=center;fillColor=#fff2cc;strokeColor=#d6b656;" parent="1" vertex="1">
          <mxGeometry x="590" y="360" width="100" height="40" as="geometry" />
        </mxCell>
        <mxCell id="g3kFlUszYr9XNTkIVNF6-50" value="" style="endArrow=classic;html=1;rounded=0;entryX=0;entryY=0.5;entryDx=0;entryDy=0;exitX=1;exitY=0.5;exitDx=0;exitDy=0;" parent="1" source="g3kFlUszYr9XNTkIVNF6-38" target="g3kFlUszYr9XNTkIVNF6-49" edge="1">
          <mxGeometry width="50" height="50" relative="1" as="geometry">
            <mxPoint x="490" y="420" as="sourcePoint" />
            <mxPoint x="540" y="370" as="targetPoint" />
          </mxGeometry>
        </mxCell>
        <mxCell id="g3kFlUszYr9XNTkIVNF6-51" value="8 GiB" style="text;html=1;align=center;verticalAlign=middle;whiteSpace=wrap;rounded=0;" parent="1" vertex="1">
          <mxGeometry x="590" y="400" width="100" height="20" as="geometry" />
        </mxCell>
      </root>
    </mxGraphModel>
  </diagram>
</mxfile>
